<svg xmlns="http://www.w3.org/2000/svg" fill="none" aria-hidden="true" viewBox="0 0 24 24" role="img"><path fill="var(--icon-color, #001e00)" d="M9.16 13.95a.75.75 0 10-1.06-1.06l1.06 1.06zm-1.81-1.81l-.529-.532-.001.002.53.53zm3.569-2.488A.75.75 0 009.86 8.588l1.058 1.064zm-.479 5.578a.75.75 0 10-1.06-1.06l1.06 1.06zm1.28 1.28a.75.75 0 10-1.06-1.06l1.06 1.06zm.78-9.52a.75.75 0 10-1.06 1.06l1.06-1.06zm1.74 2.8l-.53.53.53-.53zM10.91 8.6a.75.75 0 10-1.06 1.06l1.06-1.06zm.54-1.61a.75.75 0 001.06 1.06l-1.06-1.06zm.96.1l.53.53-.53-.53zm-.68 9.42a.75.75 0 10-1.06-1.06l1.06 1.06zM6.5 12.99a.75.75 0 001.06-1.06L6.5 12.99zm-.03-3.37l.53.53h.001l-.531-.53zm2.66-2.67l-.53-.53h-.001l.531.53zm2.28 0l-.53.53.53-.53zm.03 1.09a.75.75 0 101.06-1.06l-1.06 1.06zM8.1 12.89a.153.153 0 01-.11.042.153.153 0 01-.11-.042l-1.06 1.06a1.661 1.661 0 002.34 0L8.1 12.89zm-.22 0a.153.153 0 01-.042-.11c0-.046.016-.084.042-.11l-1.06-1.06a1.661 1.661 0 000 2.34l1.06-1.06zm-.001-.218l3.04-3.02L9.86 8.588l-3.04 3.02 1.058 1.064zm1.5 1.498a.153.153 0 01-.109.043.153.153 0 01-.11-.043L8.1 15.23a1.661 1.661 0 002.34 0l-1.06-1.06zm-.219 0a.153.153 0 01-.043-.11c0-.046.017-.084.043-.11L8.1 12.89a1.661 1.661 0 000 2.34l1.06-1.06zm1.5 1.28a.153.153 0 01-.11.043.153.153 0 01-.11-.043l-1.06 1.06a1.661 1.661 0 002.34 0l-1.06-1.06zm-.22 0a.153.153 0 01-.042-.11c0-.046.016-.084.042-.11l-1.06-1.06a1.661 1.661 0 000 2.34l1.06-1.06zm1-7.4l2.27 2.27 1.06-1.06-2.27-2.27-1.06 1.06zm2.27 2.27c.007.008.026.033.023.092a.309.309 0 01-.093.198l1.06 1.06c.631-.63.763-1.718.07-2.41l-1.06 1.06zm-.07.29a.837.837 0 01-.396.197.405.405 0 01-.138.008c-.014-.002.021.002.064.045l-1.06 1.06c.434.435 1.033.436 1.426.358a2.328 2.328 0 001.164-.608l-1.06-1.06zm-.47.25L10.91 8.6 9.85 9.66l2.26 2.26 1.06-1.06zm-.66-2.81l.43-.43-1.06-1.06-.43.43 1.06 1.06zm.43-.43a.862.862 0 011.22 0l1.06-1.06a2.361 2.361 0 00-3.34 0l1.06 1.06zm1.22 0L17 10.46l1.06-1.06-2.84-2.84-1.06 1.06zM17 10.46a.862.862 0 010 1.22l1.06 1.06a2.361 2.361 0 000-3.34L17 10.46zm0 1.22l-5.05 5.05 1.06 1.06 5.05-5.05L17 11.68zm-5.05 5.05a.153.153 0 01-.11.043.153.153 0 01-.11-.043l-1.06 1.06a1.661 1.661 0 002.34 0l-1.06-1.06zm-.22 0a.153.153 0 01-.043-.11c0-.046.017-.084.043-.11l-1.06-1.06a1.661 1.661 0 000 2.34l1.06-1.06zm-4.17-4.8L7 11.37l-1.06 1.06.56.56 1.06-1.06zM7 11.37a.862.862 0 010-1.22L5.94 9.09a2.361 2.361 0 000 3.34L7 11.37zm.001-1.22l2.66-2.67L8.6 6.42 5.94 9.09 7 10.15zm2.66-2.67a.862.862 0 011.219 0l1.06-1.06a2.361 2.361 0 00-3.34 0l1.06 1.06zm1.219 0l.56.56 1.06-1.06-.56-.56-1.06 1.06zM20.25 12A8.25 8.25 0 0112 20.25v1.5A9.75 9.75 0 0021.75 12h-1.5zM12 20.25A8.25 8.25 0 013.75 12h-1.5A9.75 9.75 0 0012 21.75v-1.5zM3.75 12A8.25 8.25 0 0112 3.75v-1.5A9.75 9.75 0 002.25 12h1.5zM12 3.75A8.25 8.25 0 0120.25 12h1.5A9.75 9.75 0 0012 2.25v1.5z"></path></svg>